<svg version="1.2" xmlns="http://www.w3.org/2000/svg" viewBox="0 0 226 39" width="226" height="39"><style>.a{fill:#487cff}.b{display:none}.c{paint-order:stroke fill markers;stroke:#fff;stroke-width: 2;stroke-linejoin: round;}</style><g style="display:none"><path class="a" d="m26.8 9q-1.2-1.2-3.1-2-1.9-0.8-4.4-0.8-3.1 0-5.1 1.3-1.9 1.3-1.9 3.5 0 2.3 3.7 3.6l7.7 2.6q3.9 1.3 5.8 3.4 1.9 2.1 1.9 5.2 0 4-2.2 7-2.2 2.9-5.9 4.4-3.8 1.5-8.5 1.5-5.4 0-9.1-1.8-3.7-1.8-5.5-5.1-0.2-0.4-0.2-0.7 0-0.4 0.4-0.6l4-2.5q0.4-0.2 0.8-0.2 0.6 0 1.1 0.6 1.3 1.7 2.4 2.6 1.1 0.9 2.7 1.3 1.6 0.5 4.1 0.5 3.2 0 5.2-1.2 2-1.2 2-3.8 0-1.2-0.9-2-0.9-0.9-3-1.6l-7.4-2.5q-3.6-1.2-5.6-3.6-1.8-2.4-1.8-5.4 0-3.8 2.1-6.7 2.1-2.9 5.7-4.4 3.6-1.6 7.9-1.6 4.3 0 7.6 1.6 3.4 1.5 5.2 3.9 0.4 0.5 0.4 0.8 0 0.3-0.3 0.5l-4.6 3q0 0-0.2 0-0.3 0-1-0.8z"/><path fill-rule="evenodd" class="a" d="m47.3 38.7q4.1 0 7-1.3 2.9-1.2 5.9-4.5 0.2-0.4 0.2-0.7 0-0.4-0.6-0.7l-3.3-1.5q-0.5-0.2-0.7-0.2-0.2 0-0.5 0.2-1.6 1.8-3.3 2.6-1.7 0.8-3.6 0.8-2.5 0-4.1-1.3-1.5-1.3-1.5-3.7 0-2.2 0.8-2.2h17.1q0.7 0 0.9-0.1 0.2-0.2 0.3-0.6 0.2-1.4 0.2-2.9 0-5.5-3.1-8.7-3.2-3.1-8.5-3.1-4.4 0-7.9 2.3-3.5 2.2-5.6 6-2 3.7-2 7.8 0 3.5 1.6 6.2 1.5 2.7 4.3 4.1 2.8 1.5 6.4 1.5zm6.4-16.6h-9.9q0.3-2.7 2.2-4.6 2-2 4.5-2 2.1 0 3.3 1.4 1.2 1.3 1.2 3.3 0 1.9-1.3 1.9z"/><path fill-rule="evenodd" class="a" d="m79.7 35.7q0.5-0.5 0.8-0.5 0.3 0 0.3 0.4l-0.1 1.3q0.1 0.7 0.2 1 0.2 0.3 0.7 0.3h5.2q0.6 0 0.7-0.1 0.2-0.2 0.2-0.8l2.6-17.8q0.1-1 0.1-1.5 0-3.4-2.6-5.3-2.6-1.9-8.1-1.9-9.3 0-12.6 5.5-0.3 0.5-0.3 1 0 0.5 0.5 0.6l5 1.2q0.1 0.1 0.4 0.1 0.4 0 0.7-0.4 1.9-3.2 5.9-3.2 3.5 0 3.5 3.1 0 0.6 0 0.8l-0.2 1.1q-0.1 0.9-1.1 0.9l-1.8 0.2q-3.9 0.1-7.6 1.2-3.6 1-6 3.3-2.4 2.3-2.4 5.9 0 3 2.1 4.8 2 1.8 5.6 1.8 5.2 0 8.3-3zm2.2-9.7l-0.5 3.3q-0.2 1.4-2.1 2.9-0.8 0.6-2 1-1.2 0.4-2.5 0.4-1.5 0-2.4-0.7-0.9-0.8-0.9-2 0-2.7 2.5-3.9 2.6-1.3 5.5-1.5l1.9-0.2q0.3 0 0.4 0.1 0.1 0.1 0.1 0.3z"/><path class="a" d="m94.1 38.2q-0.6 0-0.9-0.4-0.2-0.3-0.1-0.9l3.5-24.9q0-0.5 0.1-0.6 0.2-0.1 0.6-0.1h6q1 0 0.7 1l-0.3 2.3v0.2q0 0.4 0.2 0.4 0.1 0 0.5-0.3 1.7-1.9 3.9-3 2.2-1.1 4-1.1 1 0 1.6 0.1 0.5 0.2 0.4 0.6l-0.8 5.7q-0.1 0.6-0.2 0.7-0.1 0.2-0.4 0.1-1.7-0.2-3.5-0.2-1.3 0-2.8 0.7-1.4 0.7-2.5 1.8-1 1-1.2 2.1l-2.1 14.8q-0.1 0.7-0.3 0.8-0.2 0.2-1 0.2z"/><path class="a" d="m146.8 36.4q0.4 0.8 0.4 1.2 0 0.3-0.2 0.5-0.3 0.1-0.8 0.1h-7.1q-0.6 0-0.9-0.2-0.3-0.1-0.5-0.6l-5.7-11.7q-0.2-0.5-0.5-0.5-0.1 0-0.5 0.6l-9.1 11.8q-0.2 0.4-0.6 0.5-0.3 0.1-1.1 0.1h-5.9q-1 0-1-0.7 0-0.4 0.7-1.5l13-16.3q0.6-0.6 0.6-1.1 0-0.3-0.1-0.5l-8.5-16.6q-0.1-0.2-0.1-0.5 0-0.5 0.7-0.5h7.4q0.7 0 1 0.2 0.2 0.1 0.5 0.6l4.9 10.4q0.2 0.4 0.4 0.4 0.2 0 0.5-0.4l8-10.6q0.3-0.4 0.5-0.5 0.4-0.1 1-0.1h6.6q0.6 0 0.6 0.6 0 0.4-0.3 0.9l-12.6 15.6q-0.5 0.7-0.5 0.9 0 0.2 0.1 0.6z"/><path class="a" d="m188.4 0.5q0.3 0 0.4 0.2 0.1 0.2 0.1 0.6l-5.1 36.3q-0.1 0.4-0.3 0.5-0.1 0.1-0.5 0.1h-5.2q-0.7 0-1.2-0.8l-13.1-22.7q-0.2-0.3-0.3-0.3-0.3 0-0.4 0.6l-3.1 22.4q-0.1 0.5-0.3 0.6-0.2 0.2-0.7 0.2h-5.6q-0.8 0-0.7-1.1l5.1-35.8q0.1-0.5 0.2-0.6 0.1-0.2 0.6-0.2h6.2q0.5 0 0.7 0.3 0.3 0.2 0.6 0.7l12 21.2q0.2 0.4 0.5 0.4 0.4 0 0.4-0.6l3-21.3q0-0.4 0.2-0.5 0.2-0.2 0.6-0.2z"/><path class="a" d="m206.7 38.7q-4.6 0-7.9-1.9-3.4-2-5.1-5.5-1.8-3.5-1.8-8.3 0-6.3 2.5-11.5 2.5-5.3 7.1-8.4 4.6-3.1 10.5-3.1 4.1 0 7.2 1.6 3.1 1.5 4.8 4.1 1.8 2.6 1.9 5.5 0 0.5-0.1 0.7-0.1 0.2-0.3 0.3l-6.9 1h-0.1q-0.2 0-0.4-0.2-0.1-0.3-0.2-1.1-0.4-2.5-1.9-4.1-1.6-1.6-4.4-1.6-3.6 0-5.9 2.7-2.4 2.6-3.5 6.8-1.1 4.1-1.1 8.6 0 4.4 1.6 6.3 1.7 1.9 4.9 1.9 3.1 0 5.2-1.8 2.1-1.7 3.2-4.2l0.3-1.4q0.1-0.3 0.1-0.4 0-0.3-0.6-0.3h-6.2q-0.3 0-0.4-0.1-0.1-0.1-0.1-0.5l0.5-4.2q0-0.5 0.5-0.5h14.5q0.6 0 0.8 0.2 0.2 0.2 0.1 0.7l-2.5 17.5q-0.1 0.7-0.8 0.7h-1.6q-0.4 0-0.7-0.2-0.2-0.1-0.3-0.6l-0.9-3.7q0-0.2-0.3-0.2-0.4 0-0.7 0.4-1.7 2.1-4.4 3.4-2.7 1.4-6.6 1.4z"/></g><path class="b" d="m226 0v39h-226v-39z"/><path class="c" d="m24.1 32l-1.7-4.8h-10.7l-1.7 4.8h-6.8l9.8-26.5h8.1l9.9 26.5zm-7-20.3l-3.7 10.6h7.3zm17.4 20.2v-26.5h6.8v26.5zm37.2-26.5l-8.9 13 9.2 13.5h-7.1l-6.2-9-6.2 9h-7.1l9.2-13.5-8.9-13h7.2l5.8 8.6 5.8-8.6zm35.5 0.9v5.6q-2.2-1-4.3-1.5-2-0.5-3.9-0.5-2.4 0-3.6 0.7-1.2 0.7-1.2 2.1 0 1 0.8 1.7 0.8 0.5 2.9 1l2.9 0.5q4.4 0.9 6.3 2.7 1.8 1.9 1.8 5.2 0 4.4-2.6 6.5-2.6 2.2-7.9 2.2-2.5 0-5.1-0.5-2.5-0.5-5-1.4v-5.8q2.5 1.3 4.9 2 2.3 0.7 4.5 0.7 2.3 0 3.5-0.7 1.2-0.8 1.2-2.2 0-1.2-0.9-1.9-0.8-0.7-3.2-1.2l-2.6-0.6q-4-0.8-5.8-2.7-1.9-1.9-1.9-5 0-4 2.6-6.1 2.5-2.1 7.3-2.1 2.2 0 4.5 0.3 2.3 0.3 4.8 1zm27.3 15.7v1.8h-14.8q0.2 2.2 1.6 3.3 1.4 1.1 3.8 1.1 2 0 4.1-0.6 2.2-0.6 4.4-1.8v4.9q-2.3 0.9-4.5 1.3-2.3 0.5-4.5 0.5-5.4 0-8.4-2.8-3-2.7-3-7.7 0-4.8 2.9-7.6 3-2.8 8.1-2.8 4.7 0 7.5 2.8 2.8 2.8 2.8 7.6zm-14.8-2.2h8.3q0-1.8-1.1-2.9-1-1.1-2.7-1.1-1.9 0-3 1.1-1.2 1-1.5 2.9zm31.8 3.2h-3.3q-1.9 0-3 0.7-1 0.6-1 2 0 1.2 0.8 1.9 0.9 0.6 2.3 0.6 1.8 0 3-1.2 1.2-1.3 1.2-3.3zm6.5-2.4v11.4h-6.5v-3q-1.2 1.8-2.8 2.7-1.6 0.8-3.9 0.8-3.1 0-5-1.8-2-1.8-2-4.7 0-3.5 2.4-5.1 2.4-1.7 7.6-1.7h3.7v-0.5q0-1.5-1.1-2.2-1.2-0.7-3.8-0.7-2 0-3.8 0.4-1.7 0.5-3.2 1.3v-4.9q2-0.5 4.1-0.7 2-0.3 4.1-0.3 5.4 0 7.8 2.1 2.4 2.2 2.4 6.9zm20.6-8.8v5.7q-0.8-0.4-1.6-0.6-0.8-0.2-1.7-0.2-2.4 0-3.8 1.6-1.3 1.6-1.3 4.5v9.2h-6.3v-19.9h6.3v3.3q1.2-2 2.8-2.9 1.6-0.9 3.8-0.9 0.4 0 0.7 0 0.4 0.1 1.1 0.2zm19.3 0.9v5.2q-1.3-0.9-2.6-1.3-1.3-0.4-2.7-0.4-2.7 0-4.2 1.5-1.5 1.6-1.5 4.3 0 2.8 1.5 4.4 1.5 1.5 4.2 1.5 1.5 0 2.8-0.4 1.3-0.4 2.5-1.3v5.2q-1.5 0.5-3.1 0.8-1.5 0.3-3 0.3-5.4 0-8.5-2.8-3-2.7-3-7.7 0-4.9 3-7.6 3.1-2.8 8.5-2.8 1.5 0 3 0.3 1.6 0.3 3.1 0.8zm25.4 7.2v12.1h-6.3v-2-7.3q0-2.6-0.2-3.5-0.1-1-0.4-1.5-0.3-0.6-1-0.9-0.6-0.4-1.4-0.4-2 0-3.2 1.5-1.1 1.6-1.1 4.3v9.8h-6.3v-27.7h6.3v10.7q1.5-1.7 3.1-2.6 1.6-0.8 3.5-0.8 3.5 0 5.3 2.1 1.7 2.1 1.7 6.2z"/></svg>