<svg version="1.2" xmlns="http://www.w3.org/2000/svg" viewBox="0 0 92 92" width="92" height="92"><style>.a{display:none;stroke:#3050ff;stroke-width:10}.b{fill:#fff}.c{paint-order:stroke fill markers;stroke:#fff;stroke-width: 2;stroke-linejoin: round;}</style><path class="a" d="m92 0v92h-92v-92z"/><path class="b" d="m36.6 75.5c-20.3 0-36.6-15.5-36.6-34.7 0-19.3 16.3-34.8 36.6-34.8 20.2 0 36.5 15.5 36.5 34.8 0 19.2-16.3 34.7-36.5 34.7z"/><path  d="m36.9 73.7c-19.1 0.1-34.6-14.4-34.7-32.5-0.1-18.1 15.2-32.9 34.2-33 19.1-0.1 34.6 14.4 34.7 32.5 0.1 18.1-15.2 32.9-34.2 33z"/><path class="a" d="m34.5 64c-16.9 0-30.5-12.7-30.5-28.5 0-15.8 13.6-28.5 30.5-28.5 16.9 0 30.5 12.7 30.5 28.5 0 15.8-13.6 28.5-30.5 28.5z"/><path class="b" d="m68.2 55.6l23.8 22-12 12.9-23.7-21.9z"/><path  d="m69.8 58.7l20.8 19.2-10.4 11.3-20.8-19.1z"/><path class="c" d="m26.5 50l-1.3-3.8h-8.4l-1.3 3.8h-5.3l7.6-20.7h6.4l7.6 20.7zm-5.4-15.8l-2.9 8.2h5.7zm13.5 15.8v-20.6h5.4v20.6zm28.9-20.6l-6.9 10.1 7.2 10.5h-5.5l-4.9-7-4.8 7h-5.5l7.1-10.5-6.9-10.1h5.6l4.5 6.6 4.5-6.6z"/></svg>